<svg width="201" height="48" viewBox="0 0 201 48" fill="none" xmlns="http://www.w3.org/2000/svg">
<path d="M18.6666 26.6666V18.6666H17.3333V17.3333H19.3333C19.5101 17.3333 19.6796 17.4036 19.8047 17.5286C19.9297 17.6536 19.9999 17.8232 19.9999 18V26H28.2919L29.6253 20.6666H21.3333V19.3333H30.4799C30.5813 19.3333 30.6813 19.3564 30.7723 19.4009C30.8634 19.4453 30.9431 19.5099 31.0055 19.5898C31.0678 19.6697 31.1111 19.7628 31.1321 19.8619C31.1531 19.9611 31.1512 20.0637 31.1266 20.162L29.4599 26.8286C29.4238 26.9728 29.3406 27.1008 29.2234 27.1922C29.1062 27.2836 28.9619 27.3333 28.8133 27.3333H19.3333C19.1564 27.3333 18.9869 27.2631 18.8618 27.1381C18.7368 27.013 18.6666 26.8435 18.6666 26.6666ZM19.9999 31.3333C19.6463 31.3333 19.3072 31.1928 19.0571 30.9428C18.8071 30.6927 18.6666 30.3536 18.6666 30C18.6666 29.6464 18.8071 29.3072 19.0571 29.0572C19.3072 28.8071 19.6463 28.6666 19.9999 28.6666C20.3535 28.6666 20.6927 28.8071 20.9427 29.0572C21.1928 29.3072 21.3333 29.6464 21.3333 30C21.3333 30.3536 21.1928 30.6927 20.9427 30.9428C20.6927 31.1928 20.3535 31.3333 19.9999 31.3333ZM27.9999 31.3333C27.6463 31.3333 27.3072 31.1928 27.0571 30.9428C26.8071 30.6927 26.6666 30.3536 26.6666 30C26.6666 29.6464 26.8071 29.3072 27.0571 29.0572C27.3072 28.8071 27.6463 28.6666 27.9999 28.6666C28.3535 28.6666 28.6927 28.8071 28.9427 29.0572C29.1928 29.3072 29.3333 29.6464 29.3333 30C29.3333 30.3536 29.1928 30.6927 28.9427 30.9428C28.6927 31.1928 28.3535 31.3333 27.9999 31.3333Z" fill="white" fill-opacity="0.5"/>
<path d="M42.584 31.92V28.872C43.032 28.872 43.392 28.76 43.664 28.536C43.936 28.3067 44.144 28.0027 44.288 27.624C44.432 27.2453 44.5413 26.8213 44.616 26.352C44.6907 25.8773 44.7547 25.3973 44.808 24.912C44.8827 24.2027 44.9413 23.5173 44.984 22.856C45.032 22.1947 45.072 21.5093 45.104 20.8C45.1413 20.0907 45.184 19.3147 45.232 18.472L52.336 18.48V28.872H53.16V31.92H51.992V30H43.76V31.92H42.584ZM44.832 28.872H51.16V19.608L46.328 19.6C46.296 20.2507 46.264 20.88 46.232 21.488C46.2 22.096 46.1627 22.7093 46.12 23.328C46.0773 23.9467 46.0213 24.592 45.952 25.264C45.8933 25.8773 45.824 26.4133 45.744 26.872C45.664 27.3307 45.552 27.7227 45.408 28.048C45.2693 28.3733 45.0773 28.648 44.832 28.872ZM58.5249 30.24C57.6662 30.24 56.9329 30.0453 56.3249 29.656C55.7169 29.2667 55.2502 28.728 54.9249 28.04C54.5995 27.352 54.4369 26.5627 54.4369 25.672C54.4369 24.7653 54.6022 23.9707 54.9329 23.288C55.2635 22.6053 55.7329 22.0747 56.3409 21.696C56.9542 21.312 57.6822 21.12 58.5249 21.12C59.3889 21.12 60.1249 21.3147 60.7329 21.704C61.3462 22.088 61.8129 22.624 62.1329 23.312C62.4582 23.9947 62.6209 24.7813 62.6209 25.672C62.6209 26.5787 62.4582 27.376 62.1329 28.064C61.8075 28.7467 61.3382 29.28 60.7249 29.664C60.1115 30.048 59.3782 30.24 58.5249 30.24ZM58.5249 29.112C59.4849 29.112 60.1995 28.7947 60.6689 28.16C61.1382 27.52 61.3729 26.6907 61.3729 25.672C61.3729 24.6267 61.1355 23.7947 60.6609 23.176C60.1915 22.5573 59.4795 22.248 58.5249 22.248C57.8795 22.248 57.3462 22.3947 56.9249 22.688C56.5089 22.976 56.1969 23.3787 55.9889 23.896C55.7862 24.408 55.6849 25 55.6849 25.672C55.6849 26.712 55.9249 27.5467 56.4049 28.176C56.8849 28.8 57.5915 29.112 58.5249 29.112ZM67.8496 30.248C67.0443 30.2427 66.3536 30.0667 65.7776 29.72C65.2016 29.3733 64.7536 28.856 64.4336 28.168C64.119 27.48 63.9483 26.6213 63.9216 25.592C63.9056 25.1387 63.9163 24.6453 63.9536 24.112C63.991 23.5733 64.0496 23.0613 64.1296 22.576C64.2096 22.0907 64.3056 21.696 64.4176 21.392C64.5563 20.9973 64.7536 20.6293 65.0096 20.288C65.271 19.9413 65.5723 19.6587 65.9136 19.44C66.2443 19.216 66.6176 19.0427 67.0336 18.92C67.455 18.792 67.8923 18.6933 68.3456 18.624C68.8043 18.5547 69.2576 18.4933 69.7056 18.44C70.159 18.3867 70.5776 18.32 70.9616 18.24L71.0896 19.304C70.7963 19.3627 70.4496 19.416 70.0496 19.464C69.6496 19.512 69.231 19.5707 68.7936 19.64C68.3563 19.704 67.9376 19.792 67.5376 19.904C67.1376 20.016 66.7963 20.1627 66.5136 20.344C66.0816 20.6053 65.7483 21 65.5136 21.528C65.2843 22.056 65.143 22.6613 65.0896 23.344C65.4203 22.8267 65.8576 22.4373 66.4016 22.176C66.951 21.9147 67.5456 21.784 68.1856 21.784C68.9643 21.784 69.6336 21.9627 70.1936 22.32C70.759 22.6773 71.1936 23.1733 71.4976 23.808C71.8016 24.4427 71.9536 25.1707 71.9536 25.992C71.9536 26.8507 71.7856 27.6 71.4496 28.24C71.119 28.88 70.647 29.376 70.0336 29.728C69.4203 30.0747 68.6923 30.248 67.8496 30.248ZM67.9376 29.12C68.8443 29.12 69.5323 28.8373 70.0016 28.272C70.4763 27.7067 70.7136 26.9547 70.7136 26.016C70.7136 25.056 70.4683 24.2987 69.9776 23.744C69.4923 23.1893 68.807 22.912 67.9216 22.912C67.0363 22.912 66.3563 23.1893 65.8816 23.744C65.407 24.2987 65.1696 25.056 65.1696 26.016C65.1696 26.976 65.407 27.7333 65.8816 28.288C66.3563 28.8427 67.0416 29.12 67.9376 29.12ZM76.1858 30.24C75.5351 30.24 74.9884 30.1227 74.5458 29.888C74.1084 29.6533 73.7804 29.3413 73.5618 28.952C73.3431 28.5627 73.2338 28.1387 73.2338 27.68C73.2338 27.2107 73.3271 26.8107 73.5138 26.48C73.7058 26.144 73.9644 25.8693 74.2898 25.656C74.6204 25.4427 75.0018 25.28 75.4338 25.168C75.8711 25.0613 76.3538 24.968 76.8818 24.888C77.4151 24.8027 77.9351 24.7307 78.4418 24.672C78.9538 24.608 79.4018 24.5467 79.7858 24.488L79.3698 24.744C79.3858 23.8907 79.2204 23.2587 78.8738 22.848C78.5271 22.4373 77.9244 22.232 77.0658 22.232C76.4738 22.232 75.9724 22.3653 75.5618 22.632C75.1564 22.8987 74.8711 23.32 74.7057 23.896L73.5618 23.56C73.7591 22.7867 74.1564 22.1867 74.7538 21.76C75.3511 21.3333 76.1271 21.12 77.0818 21.12C77.8711 21.12 78.5404 21.2693 79.0898 21.568C79.6444 21.8613 80.0364 22.288 80.2658 22.848C80.3724 23.0987 80.4418 23.3787 80.4738 23.688C80.5058 23.9973 80.5218 24.312 80.5218 24.632V30H79.4738V27.832L79.7778 27.96C79.4844 28.7013 79.0284 29.2667 78.4098 29.656C77.7911 30.0453 77.0498 30.24 76.1858 30.24ZM76.3218 29.224C76.8711 29.224 77.3511 29.1253 77.7618 28.928C78.1724 28.7307 78.5031 28.4613 78.7538 28.12C79.0044 27.7733 79.1671 27.384 79.2418 26.952C79.3058 26.6747 79.3404 26.3707 79.3458 26.04C79.3511 25.704 79.3538 25.4533 79.3538 25.288L79.8018 25.52C79.4018 25.5733 78.9671 25.6267 78.4978 25.68C78.0338 25.7333 77.5751 25.7947 77.1218 25.864C76.6738 25.9333 76.2684 26.016 75.9058 26.112C75.6604 26.1813 75.4231 26.28 75.1938 26.408C74.9644 26.5307 74.7751 26.696 74.6258 26.904C74.4818 27.112 74.4098 27.3707 74.4098 27.68C74.4098 27.9307 74.4711 28.1733 74.5938 28.408C74.7218 28.6427 74.9244 28.8373 75.2018 28.992C75.4844 29.1467 75.8578 29.224 76.3218 29.224ZM82.5964 30V21.36H86.1564C86.3377 21.36 86.5564 21.3707 86.8124 21.392C87.0737 21.4133 87.3164 21.4533 87.5404 21.512C88.0257 21.64 88.415 21.9013 88.7084 22.296C89.007 22.6907 89.1564 23.1653 89.1564 23.72C89.1564 24.0293 89.1084 24.3067 89.0124 24.552C88.9217 24.792 88.791 25 88.6204 25.176C88.5404 25.2667 88.4524 25.3467 88.3564 25.416C88.2604 25.48 88.167 25.5333 88.0764 25.576C88.247 25.608 88.431 25.6827 88.6284 25.8C88.9377 25.9813 89.1724 26.2267 89.3324 26.536C89.4924 26.84 89.5724 27.2107 89.5724 27.648C89.5724 28.24 89.431 28.7227 89.1484 29.096C88.8657 29.4693 88.487 29.7253 88.0124 29.864C87.799 29.9227 87.567 29.96 87.3164 29.976C87.071 29.992 86.839 30 86.6204 30H82.5964ZM83.7804 29H86.5644C86.6764 29 86.8177 28.992 86.9884 28.976C87.159 28.9547 87.311 28.928 87.4444 28.896C87.759 28.816 87.9884 28.656 88.1324 28.416C88.2817 28.1707 88.3564 27.904 88.3564 27.616C88.3564 27.2373 88.2444 26.928 88.0204 26.688C87.8017 26.4427 87.5084 26.2933 87.1404 26.24C87.0177 26.2133 86.8897 26.1973 86.7564 26.192C86.623 26.1867 86.503 26.184 86.3964 26.184H83.7804V29ZM83.7804 25.176H86.1964C86.335 25.176 86.4897 25.168 86.6604 25.152C86.8364 25.1307 86.9884 25.096 87.1164 25.048C87.3937 24.952 87.5964 24.7867 87.7244 24.552C87.8577 24.3173 87.9244 24.0613 87.9244 23.784C87.9244 23.48 87.8524 23.2133 87.7084 22.984C87.5697 22.7547 87.359 22.5947 87.0764 22.504C86.8844 22.4347 86.6764 22.3947 86.4524 22.384C86.2337 22.3733 86.095 22.368 86.0364 22.368H83.7804V25.176ZM98.0309 21.36V30H96.8869V23.272L92.1509 30H91.1589V21.36H92.3029V28.032L97.0469 21.36H98.0309ZM100.284 30L100.268 21.36H101.452V24.616H103.476C103.727 24.616 103.972 24.6213 104.212 24.632C104.458 24.6427 104.674 24.664 104.86 24.696C105.287 24.776 105.666 24.9173 105.996 25.12C106.332 25.3227 106.594 25.6027 106.78 25.96C106.972 26.3173 107.068 26.7653 107.068 27.304C107.068 28.0453 106.876 28.6293 106.492 29.056C106.114 29.4827 105.634 29.76 105.052 29.888C104.834 29.936 104.596 29.968 104.34 29.984C104.084 29.9947 103.831 30 103.58 30H100.284ZM101.452 28.992H103.532C103.714 28.992 103.916 28.9867 104.14 28.976C104.364 28.9653 104.562 28.936 104.732 28.888C105.015 28.808 105.271 28.648 105.5 28.408C105.735 28.1627 105.852 27.7947 105.852 27.304C105.852 26.8187 105.74 26.4533 105.516 26.208C105.292 25.9573 104.994 25.792 104.62 25.712C104.455 25.6747 104.276 25.6507 104.084 25.64C103.892 25.6293 103.708 25.624 103.532 25.624H101.452V28.992ZM112.018 30V21.36H115.578C115.76 21.36 115.978 21.3707 116.234 21.392C116.496 21.4133 116.738 21.4533 116.962 21.512C117.448 21.64 117.837 21.9013 118.13 22.296C118.429 22.6907 118.578 23.1653 118.578 23.72C118.578 24.0293 118.53 24.3067 118.434 24.552C118.344 24.792 118.213 25 118.042 25.176C117.962 25.2667 117.874 25.3467 117.778 25.416C117.682 25.48 117.589 25.5333 117.498 25.576C117.669 25.608 117.853 25.6827 118.05 25.8C118.36 25.9813 118.594 26.2267 118.754 26.536C118.914 26.84 118.994 27.2107 118.994 27.648C118.994 28.24 118.853 28.7227 118.57 29.096C118.288 29.4693 117.909 29.7253 117.434 29.864C117.221 29.9227 116.989 29.96 116.738 29.976C116.493 29.992 116.261 30 116.042 30H112.018ZM113.202 29H115.986C116.098 29 116.24 28.992 116.41 28.976C116.581 28.9547 116.733 28.928 116.866 28.896C117.181 28.816 117.41 28.656 117.554 28.416C117.704 28.1707 117.778 27.904 117.778 27.616C117.778 27.2373 117.666 26.928 117.442 26.688C117.224 26.4427 116.93 26.2933 116.562 26.24C116.44 26.2133 116.312 26.1973 116.178 26.192C116.045 26.1867 115.925 26.184 115.818 26.184H113.202V29ZM113.202 25.176H115.618C115.757 25.176 115.912 25.168 116.082 25.152C116.258 25.1307 116.41 25.096 116.538 25.048C116.816 24.952 117.018 24.7867 117.146 24.552C117.28 24.3173 117.346 24.0613 117.346 23.784C117.346 23.48 117.274 23.2133 117.13 22.984C116.992 22.7547 116.781 22.5947 116.498 22.504C116.306 22.4347 116.098 22.3947 115.874 22.384C115.656 22.3733 115.517 22.368 115.458 22.368H113.202V25.176ZM123.784 30L123.792 21.36H124.976V25.52L128.832 21.36H130.4L126.352 25.68L130.928 30H129.216L124.976 25.84V30H123.784ZM135.181 30.24C134.322 30.24 133.589 30.0453 132.981 29.656C132.373 29.2667 131.906 28.728 131.581 28.04C131.256 27.352 131.093 26.5627 131.093 25.672C131.093 24.7653 131.258 23.9707 131.589 23.288C131.92 22.6053 132.389 22.0747 132.997 21.696C133.61 21.312 134.338 21.12 135.181 21.12C136.045 21.12 136.781 21.3147 137.389 21.704C138.002 22.088 138.469 22.624 138.789 23.312C139.114 23.9947 139.277 24.7813 139.277 25.672C139.277 26.5787 139.114 27.376 138.789 28.064C138.464 28.7467 137.994 29.28 137.381 29.664C136.768 30.048 136.034 30.24 135.181 30.24ZM135.181 29.112C136.141 29.112 136.856 28.7947 137.325 28.16C137.794 27.52 138.029 26.6907 138.029 25.672C138.029 24.6267 137.792 23.7947 137.317 23.176C136.848 22.5573 136.136 22.248 135.181 22.248C134.536 22.248 134.002 22.3947 133.581 22.688C133.165 22.976 132.853 23.3787 132.645 23.896C132.442 24.408 132.341 25 132.341 25.672C132.341 26.712 132.581 27.5467 133.061 28.176C133.541 28.8 134.248 29.112 135.181 29.112ZM144.922 30.24C144.127 30.24 143.455 30.04 142.906 29.64C142.357 29.2347 141.941 28.688 141.658 28C141.375 27.3067 141.234 26.5307 141.234 25.672C141.234 24.7973 141.375 24.0187 141.658 23.336C141.946 22.648 142.367 22.1067 142.922 21.712C143.477 21.3173 144.159 21.12 144.97 21.12C145.759 21.12 146.437 21.32 147.002 21.72C147.567 22.12 147.999 22.664 148.298 23.352C148.602 24.04 148.754 24.8133 148.754 25.672C148.754 26.536 148.602 27.312 148.298 28C147.994 28.688 147.557 29.2347 146.986 29.64C146.415 30.04 145.727 30.24 144.922 30.24ZM141.034 33.84V21.36H142.09V27.864H142.218V33.84H141.034ZM144.802 29.144C145.405 29.144 145.906 28.992 146.306 28.688C146.706 28.384 147.005 27.9707 147.202 27.448C147.405 26.92 147.506 26.328 147.506 25.672C147.506 25.0213 147.407 24.4347 147.21 23.912C147.013 23.3893 146.711 22.976 146.306 22.672C145.906 22.368 145.397 22.216 144.778 22.216C144.175 22.216 143.674 22.3627 143.274 22.656C142.879 22.9493 142.583 23.3573 142.386 23.88C142.189 24.3973 142.09 24.9947 142.09 25.672C142.09 26.3387 142.189 26.936 142.386 27.464C142.583 27.9867 142.882 28.3973 143.282 28.696C143.682 28.9947 144.189 29.144 144.802 29.144ZM153.31 30.24C152.441 30.24 151.681 30.0507 151.03 29.672C150.385 29.288 149.875 28.7573 149.502 28.08L150.446 27.48C150.761 28.0133 151.153 28.4187 151.622 28.696C152.091 28.9733 152.63 29.112 153.238 29.112C153.873 29.112 154.382 28.9653 154.766 28.672C155.15 28.3787 155.342 27.976 155.342 27.464C155.342 27.112 155.259 26.832 155.094 26.624C154.934 26.416 154.689 26.2667 154.358 26.176C154.033 26.0853 153.625 26.04 153.134 26.04H152.11V25.032H153.118C153.715 25.032 154.195 24.9253 154.558 24.712C154.926 24.4933 155.11 24.152 155.11 23.688C155.11 23.1973 154.926 22.8347 154.558 22.6C154.195 22.36 153.761 22.24 153.254 22.24C152.742 22.24 152.257 22.3467 151.798 22.56C151.345 22.768 150.963 23.0373 150.654 23.368L149.902 22.576C150.334 22.1013 150.838 21.7413 151.414 21.496C151.995 21.2453 152.638 21.12 153.342 21.12C153.897 21.12 154.398 21.2187 154.846 21.416C155.299 21.608 155.657 21.8907 155.918 22.264C156.185 22.6373 156.318 23.0853 156.318 23.608C156.318 24.0987 156.198 24.5227 155.958 24.88C155.723 25.2373 155.39 25.5333 154.958 25.768L154.894 25.328C155.267 25.3973 155.577 25.5467 155.822 25.776C156.067 26.0053 156.249 26.28 156.366 26.6C156.483 26.92 156.542 27.2453 156.542 27.576C156.542 28.1253 156.398 28.6 156.11 29C155.827 29.3947 155.441 29.7013 154.95 29.92C154.465 30.1333 153.918 30.24 153.31 30.24ZM165.172 21.36V30H164.028V23.272L159.292 30H158.3V21.36H159.444V28.032L164.188 21.36H165.172ZM167.409 30V21.36H168.585V25.112H173.457V21.36H174.633V30H173.457V26.24H168.585V30H167.409ZM178.102 33.84L179.774 29.304L179.798 30.648L176.014 21.36H177.262L180.366 29.128H179.854L182.718 21.36H183.918L179.278 33.84H178.102Z" fill="white" fill-opacity="0.5"/>
<rect x="0.25" y="0.25" width="200.5" height="47.5" rx="4.75" stroke="white" stroke-opacity="0.2" stroke-width="0.5"/>
</svg>
