<svg width="16" height="16" viewBox="0 0 16 16" fill="none" xmlns="http://www.w3.org/2000/svg">
<path d="M2.66659 10.6666V2.66665H1.33325V1.33331H3.33325C3.51006 1.33331 3.67963 1.40355 3.80466 1.52858C3.92968 1.6536 3.99992 1.82317 3.99992 1.99998V9.99998H12.2919L13.6253 4.66665H5.33325V3.33331H14.4799C14.5813 3.33332 14.6813 3.35642 14.7723 3.40087C14.8634 3.44532 14.9431 3.50995 15.0055 3.58984C15.0678 3.66973 15.1111 3.76278 15.1321 3.86192C15.1531 3.96106 15.1512 4.06368 15.1266 4.16198L13.4599 10.8286C13.4238 10.9728 13.3406 11.1008 13.2234 11.1922C13.1062 11.2836 12.9619 11.3333 12.8133 11.3333H3.33325C3.15644 11.3333 2.98687 11.2631 2.86185 11.1381C2.73682 11.013 2.66659 10.8435 2.66659 10.6666V10.6666ZM3.99992 15.3333C3.6463 15.3333 3.30716 15.1928 3.05711 14.9428C2.80706 14.6927 2.66659 14.3536 2.66659 14C2.66659 13.6464 2.80706 13.3072 3.05711 13.0572C3.30716 12.8071 3.6463 12.6666 3.99992 12.6666C4.35354 12.6666 4.69268 12.8071 4.94273 13.0572C5.19278 13.3072 5.33325 13.6464 5.33325 14C5.33325 14.3536 5.19278 14.6927 4.94273 14.9428C4.69268 15.1928 4.35354 15.3333 3.99992 15.3333ZM11.9999 15.3333C11.6463 15.3333 11.3072 15.1928 11.0571 14.9428C10.8071 14.6927 10.6666 14.3536 10.6666 14C10.6666 13.6464 10.8071 13.3072 11.0571 13.0572C11.3072 12.8071 11.6463 12.6666 11.9999 12.6666C12.3535 12.6666 12.6927 12.8071 12.9427 13.0572C13.1928 13.3072 13.3333 13.6464 13.3333 14C13.3333 14.3536 13.1928 14.6927 12.9427 14.9428C12.6927 15.1928 12.3535 15.3333 11.9999 15.3333Z" fill="white" fill-opacity="0.5"/>
</svg>
