<svg width="48" height="48" viewBox="0 0 48 48" fill="none" xmlns="http://www.w3.org/2000/svg">
<path d="M45.2934 22.5045C43.305 13.5148 40.3125 8.71667 35.8734 7.40605C34.9403 7.13234 33.9724 6.9956 33 7.00011C31.7146 7.00011 30.5953 7.31323 29.4112 7.64511C27.9843 8.04542 26.3634 8.50011 24 8.50011C21.6365 8.50011 20.0146 8.04636 18.585 7.64605C17.4 7.31323 16.2815 7.00011 15 7.00011C13.9944 6.99662 12.9933 7.13293 12.0253 7.40511C7.60964 8.71011 4.61901 13.5064 2.60151 22.4989C0.432136 32.1757 1.49995 38.2854 5.59589 39.7029C6.15734 39.9008 6.74808 40.0029 7.34339 40.0048C10.1493 40.0048 12.3993 37.6676 13.9368 35.7542C15.674 33.5885 17.7075 32.4898 24 32.4898C29.6203 32.4898 31.9462 33.252 33.9553 35.7542C35.2181 37.3273 36.4115 38.4279 37.6021 39.1207C39.1856 40.0414 40.7681 40.2457 42.3046 39.7179C44.7253 38.892 46.1128 36.7085 46.4296 33.2267C46.6706 30.5567 46.2993 27.0495 45.2934 22.5045ZM19.5 22.0001H16.5V25.0001C16.5 25.3979 16.3419 25.7795 16.0606 26.0608C15.7793 26.3421 15.3978 26.5001 15 26.5001C14.6021 26.5001 14.2206 26.3421 13.9393 26.0608C13.658 25.7795 13.5 25.3979 13.5 25.0001V22.0001H10.5C10.1021 22.0001 9.72059 21.8421 9.43929 21.5608C9.15799 21.2795 8.99995 20.8979 8.99995 20.5001C8.99995 20.1023 9.15799 19.7208 9.43929 19.4394C9.72059 19.1581 10.1021 19.0001 10.5 19.0001H13.5V16.0001C13.5 15.6023 13.658 15.2208 13.9393 14.9394C14.2206 14.6581 14.6021 14.5001 15 14.5001C15.3978 14.5001 15.7793 14.6581 16.0606 14.9394C16.3419 15.2208 16.5 15.6023 16.5 16.0001V19.0001H19.5C19.8978 19.0001 20.2793 19.1581 20.5606 19.4394C20.8419 19.7208 21 20.1023 21 20.5001C21 20.8979 20.8419 21.2795 20.5606 21.5608C20.2793 21.8421 19.8978 22.0001 19.5 22.0001ZM27.375 22.3751C27.0041 22.3751 26.6416 22.2651 26.3333 22.0591C26.0249 21.8531 25.7846 21.5603 25.6427 21.2176C25.5008 20.875 25.4636 20.498 25.536 20.1343C25.6083 19.7706 25.7869 19.4365 26.0491 19.1743C26.3114 18.9121 26.6454 18.7335 27.0092 18.6611C27.3729 18.5888 27.7499 18.6259 28.0925 18.7678C28.4351 18.9097 28.7279 19.1501 28.934 19.4584C29.14 19.7668 29.25 20.1293 29.25 20.5001C29.25 20.9974 29.0524 21.4743 28.7008 21.8259C28.3491 22.1776 27.8722 22.3751 27.375 22.3751V22.3751ZM31.5 26.5001C31.1289 26.5001 30.7662 26.39 30.4578 26.1838C30.1493 25.9775 29.909 25.6844 29.7672 25.3416C29.6255 24.9987 29.5886 24.6214 29.6613 24.2576C29.7341 23.8937 29.9131 23.5597 30.1758 23.2976C30.4385 23.0356 30.773 22.8574 31.137 22.7856C31.5011 22.7137 31.8782 22.7516 32.2207 22.8942C32.5633 23.0368 32.8558 23.2779 33.0612 23.5868C33.2667 23.8958 33.3759 24.2588 33.375 24.6298C33.3737 25.1263 33.1756 25.602 32.8241 25.9526C32.4726 26.3032 31.9964 26.5001 31.5 26.5001V26.5001ZM31.5 18.2501C31.1291 18.2501 30.7666 18.1401 30.4583 17.9341C30.1499 17.7281 29.9096 17.4353 29.7677 17.0926C29.6258 16.75 29.5886 16.373 29.661 16.0093C29.7333 15.6456 29.9119 15.3115 30.1741 15.0493C30.4364 14.7871 30.7704 14.6085 31.1342 14.5361C31.4979 14.4638 31.8749 14.5009 32.2175 14.6428C32.5601 14.7847 32.8529 15.0251 33.059 15.3334C33.265 15.6418 33.375 16.0043 33.375 16.3751C33.375 16.8724 33.1774 17.3493 32.8258 17.7009C32.4742 18.0526 31.9972 18.2501 31.5 18.2501ZM35.625 22.3751C35.2541 22.3751 34.8916 22.2651 34.5833 22.0591C34.2749 21.8531 34.0346 21.5603 33.8927 21.2176C33.7508 20.875 33.7136 20.498 33.786 20.1343C33.8583 19.7706 34.0369 19.4365 34.2991 19.1743C34.5614 18.9121 34.8954 18.7335 35.2592 18.6611C35.6229 18.5888 35.9999 18.6259 36.3425 18.7678C36.6851 18.9097 36.9779 19.1501 37.184 19.4584C37.39 19.7668 37.5 20.1293 37.5 20.5001C37.5 20.9974 37.3024 21.4743 36.9508 21.8259C36.5992 22.1776 36.1222 22.3751 35.625 22.3751V22.3751Z" fill="url(#paint0_linear_1_97)"/>
<defs>
<linearGradient id="paint0_linear_1_97" x1="18.4998" y1="4" x2="24.0019" y2="40.0048" gradientUnits="userSpaceOnUse">
<stop stop-color="#F15C3C"/>
<stop offset="0.796875" stop-color="#4825D2"/>
</linearGradient>
</defs>
</svg>
