<svg width="158" height="45" viewBox="0 0 158 45" fill="none" xmlns="http://www.w3.org/2000/svg">
<rect width="99" height="45" rx="5" fill="#0D1017"/>
<rect x="99" y="3" width="59" height="39" rx="5" fill="url(#paint0_linear_13_785)"/>
<path d="M16.216 29.232C15.6453 29.232 15.12 29.1307 14.64 28.928C14.16 28.7253 13.7467 28.4373 13.4 28.064C13.0533 27.6853 12.8 27.2347 12.64 26.712L13.76 26.376C13.952 26.9467 14.2667 27.3787 14.704 27.672C15.1467 27.9653 15.6453 28.1067 16.2 28.096C16.712 28.0853 17.152 27.9707 17.52 27.752C17.8933 27.5333 18.1787 27.2293 18.376 26.84C18.5733 26.4507 18.672 26 18.672 25.488C18.672 24.704 18.4427 24.0747 17.984 23.6C17.5307 23.12 16.9307 22.88 16.184 22.88C15.976 22.88 15.7573 22.9093 15.528 22.968C15.2987 23.0213 15.0853 23.0987 14.888 23.2L14.296 22.264L18.776 18.128L18.968 18.608H13.096V17.48H19.752V18.624L15.848 22.352L15.832 21.888C16.632 21.7867 17.336 21.8773 17.944 22.16C18.552 22.4427 19.0267 22.8747 19.368 23.456C19.7147 24.032 19.888 24.7093 19.888 25.488C19.888 26.224 19.728 26.8747 19.408 27.44C19.0933 28 18.6587 28.44 18.104 28.76C17.5493 29.0747 16.92 29.232 16.216 29.232ZM27.0358 29V26.768H21.6438V25.648L25.4998 17.48H26.8198L22.9638 25.648H27.0358V22.288H28.2198V25.648H29.4757V26.768H28.2198V29H27.0358ZM35.037 17.248C35.7623 17.248 36.4183 17.424 37.005 17.776C37.597 18.1227 38.0663 18.5973 38.413 19.2C38.7597 19.7973 38.933 20.4693 38.933 21.216V25.216C38.933 25.984 38.7597 26.672 38.413 27.28C38.0663 27.888 37.5917 28.368 36.989 28.72C36.3917 29.0667 35.7117 29.24 34.949 29.24C34.293 29.24 33.685 29.096 33.125 28.808C32.5703 28.5147 32.1117 28.112 31.749 27.6L32.645 26.856C32.8903 27.2347 33.2157 27.5387 33.621 27.768C34.0317 27.9973 34.4743 28.112 34.949 28.112C35.493 28.112 35.973 27.984 36.389 27.728C36.8103 27.4667 37.141 27.1253 37.381 26.704C37.6263 26.2773 37.749 25.816 37.749 25.32V22.808L38.037 23.144C37.7063 23.672 37.2663 24.0987 36.717 24.424C36.173 24.7493 35.5757 24.912 34.925 24.912C34.2157 24.912 33.573 24.7413 32.997 24.4C32.4263 24.0587 31.973 23.6 31.637 23.024C31.3063 22.448 31.141 21.8053 31.141 21.096C31.141 20.3867 31.317 19.7413 31.669 19.16C32.021 18.5733 32.493 18.1093 33.085 17.768C33.677 17.4213 34.3277 17.248 35.037 17.248ZM35.037 18.384C34.5357 18.384 34.0797 18.5067 33.669 18.752C33.2583 18.992 32.9303 19.3173 32.685 19.728C32.445 20.1387 32.325 20.5947 32.325 21.096C32.325 21.5973 32.445 22.0533 32.685 22.464C32.925 22.8747 33.2503 23.2027 33.661 23.448C34.0717 23.688 34.5277 23.808 35.029 23.808C35.5303 23.808 35.9863 23.688 36.397 23.448C36.813 23.2027 37.141 22.8747 37.381 22.464C37.6263 22.0533 37.749 21.5973 37.749 21.096C37.749 20.6 37.6263 20.1467 37.381 19.736C37.141 19.3253 36.8157 18.9973 36.405 18.752C35.9943 18.5067 35.5383 18.384 35.037 18.384ZM44.9589 17.248C45.6842 17.248 46.3402 17.424 46.9269 17.776C47.5189 18.1227 47.9882 18.5973 48.3349 19.2C48.6815 19.7973 48.8549 20.4693 48.8549 21.216V25.216C48.8549 25.984 48.6815 26.672 48.3349 27.28C47.9882 27.888 47.5135 28.368 46.9109 28.72C46.3135 29.0667 45.6335 29.24 44.8709 29.24C44.2149 29.24 43.6069 29.096 43.0469 28.808C42.4922 28.5147 42.0335 28.112 41.6709 27.6L42.5669 26.856C42.8122 27.2347 43.1375 27.5387 43.5429 27.768C43.9535 27.9973 44.3962 28.112 44.8709 28.112C45.4149 28.112 45.8949 27.984 46.3109 27.728C46.7322 27.4667 47.0629 27.1253 47.3029 26.704C47.5482 26.2773 47.6709 25.816 47.6709 25.32V22.808L47.9589 23.144C47.6282 23.672 47.1882 24.0987 46.6389 24.424C46.0949 24.7493 45.4975 24.912 44.8469 24.912C44.1375 24.912 43.4949 24.7413 42.9189 24.4C42.3482 24.0587 41.8949 23.6 41.5589 23.024C41.2282 22.448 41.0629 21.8053 41.0629 21.096C41.0629 20.3867 41.2389 19.7413 41.5909 19.16C41.9429 18.5733 42.4149 18.1093 43.0069 17.768C43.5989 17.4213 44.2495 17.248 44.9589 17.248ZM44.9589 18.384C44.4575 18.384 44.0015 18.5067 43.5909 18.752C43.1802 18.992 42.8522 19.3173 42.6069 19.728C42.3669 20.1387 42.2469 20.5947 42.2469 21.096C42.2469 21.5973 42.3669 22.0533 42.6069 22.464C42.8469 22.8747 43.1722 23.2027 43.5829 23.448C43.9935 23.688 44.4495 23.808 44.9509 23.808C45.4522 23.808 45.9082 23.688 46.3189 23.448C46.7349 23.2027 47.0629 22.8747 47.3029 22.464C47.5482 22.0533 47.6709 21.5973 47.6709 21.096C47.6709 20.6 47.5482 20.1467 47.3029 19.736C47.0629 19.3253 46.7375 18.9973 46.3269 18.752C45.9162 18.5067 45.4602 18.384 44.9589 18.384ZM58.1719 29.24C57.3772 29.24 56.7052 29.04 56.1559 28.64C55.6065 28.2347 55.1905 27.688 54.9079 27C54.6252 26.3067 54.4839 25.5307 54.4839 24.672C54.4839 23.7973 54.6252 23.0187 54.9079 22.336C55.1959 21.648 55.6172 21.1067 56.1719 20.712C56.7265 20.3173 57.4092 20.12 58.2199 20.12C59.0092 20.12 59.6865 20.32 60.2519 20.72C60.8172 21.12 61.2492 21.664 61.5479 22.352C61.8519 23.04 62.0039 23.8133 62.0039 24.672C62.0039 25.536 61.8519 26.312 61.5479 27C61.2439 27.688 60.8065 28.2347 60.2359 28.64C59.6652 29.04 58.9772 29.24 58.1719 29.24ZM54.2839 32.84V20.36H55.3399V26.864H55.4679V32.84H54.2839ZM58.0519 28.144C58.6545 28.144 59.1559 27.992 59.5559 27.688C59.9559 27.384 60.2545 26.9707 60.4519 26.448C60.6545 25.92 60.7559 25.328 60.7559 24.672C60.7559 24.0213 60.6572 23.4347 60.4599 22.912C60.2625 22.3893 59.9612 21.976 59.5559 21.672C59.1559 21.368 58.6465 21.216 58.0279 21.216C57.4252 21.216 56.9239 21.3627 56.5239 21.656C56.1292 21.9493 55.8332 22.3573 55.6359 22.88C55.4385 23.3973 55.3399 23.9947 55.3399 24.672C55.3399 25.3387 55.4385 25.936 55.6359 26.464C55.8332 26.9867 56.1319 27.3973 56.5319 27.696C56.9319 27.9947 57.4385 28.144 58.0519 28.144ZM64.6801 32.84L66.3521 28.304L66.3761 29.648L62.5921 20.36H63.8401L66.9441 28.128H66.4321L69.2961 20.36H70.4961L65.8561 32.84H64.6801ZM75.3496 29.248C74.5443 29.2427 73.8536 29.0667 73.2776 28.72C72.7016 28.3733 72.2536 27.856 71.9336 27.168C71.619 26.48 71.4483 25.6213 71.4216 24.592C71.4056 24.1387 71.4163 23.6453 71.4536 23.112C71.491 22.5733 71.5496 22.0613 71.6296 21.576C71.7096 21.0907 71.8056 20.696 71.9176 20.392C72.0563 19.9973 72.2536 19.6293 72.5096 19.288C72.771 18.9413 73.0723 18.6587 73.4136 18.44C73.7443 18.216 74.1176 18.0427 74.5336 17.92C74.955 17.792 75.3923 17.6933 75.8456 17.624C76.3043 17.5547 76.7576 17.4933 77.2056 17.44C77.659 17.3867 78.0776 17.32 78.4616 17.24L78.5896 18.304C78.2963 18.3627 77.9496 18.416 77.5496 18.464C77.1496 18.512 76.731 18.5707 76.2936 18.64C75.8563 18.704 75.4376 18.792 75.0376 18.904C74.6376 19.016 74.2963 19.1627 74.0136 19.344C73.5816 19.6053 73.2483 20 73.0136 20.528C72.7843 21.056 72.643 21.6613 72.5896 22.344C72.9203 21.8267 73.3576 21.4373 73.9016 21.176C74.451 20.9147 75.0456 20.784 75.6856 20.784C76.4643 20.784 77.1336 20.9627 77.6936 21.32C78.259 21.6773 78.6936 22.1733 78.9976 22.808C79.3016 23.4427 79.4536 24.1707 79.4536 24.992C79.4536 25.8507 79.2856 26.6 78.9496 27.24C78.619 27.88 78.147 28.376 77.5336 28.728C76.9203 29.0747 76.1923 29.248 75.3496 29.248ZM75.4376 28.12C76.3443 28.12 77.0323 27.8373 77.5016 27.272C77.9763 26.7067 78.2136 25.9547 78.2136 25.016C78.2136 24.056 77.9683 23.2987 77.4776 22.744C76.9923 22.1893 76.307 21.912 75.4216 21.912C74.5363 21.912 73.8563 22.1893 73.3816 22.744C72.907 23.2987 72.6696 24.056 72.6696 25.016C72.6696 25.976 72.907 26.7333 73.3816 27.288C73.8563 27.8427 74.5416 28.12 75.4376 28.12ZM81.1253 29V27.632H82.4933V29H81.1253Z" fill="white" fill-opacity="0.4"/>
<path d="M12 23.816H83.8372V24.216H12V23.816Z" fill="white" fill-opacity="0.4"/>
<path d="M108.96 24.464V23.456H113.76V24.464H108.96ZM121.13 29V26.768H115.738V25.648L119.594 17.48H120.914L117.058 25.648H121.13V22.288H122.314V25.648H123.569V26.768H122.314V29H121.13ZM129.255 29.24C128.546 29.24 127.906 29.0747 127.335 28.744C126.77 28.4133 126.322 27.9653 125.991 27.4C125.66 26.8293 125.495 26.1893 125.495 25.48V21C125.495 20.2907 125.66 19.6533 125.991 19.088C126.322 18.5173 126.77 18.0667 127.335 17.736C127.906 17.4053 128.546 17.24 129.255 17.24C129.964 17.24 130.602 17.4053 131.167 17.736C131.738 18.0667 132.188 18.5173 132.519 19.088C132.85 19.6533 133.015 20.2907 133.015 21V25.48C133.015 26.1893 132.85 26.8293 132.519 27.4C132.188 27.9653 131.738 28.4133 131.167 28.744C130.602 29.0747 129.964 29.24 129.255 29.24ZM129.255 28.104C129.73 28.104 130.162 27.9893 130.551 27.76C130.94 27.5253 131.25 27.2133 131.479 26.824C131.708 26.4347 131.823 26.0053 131.823 25.536V20.944C131.823 20.4693 131.708 20.0373 131.479 19.648C131.25 19.2587 130.94 18.9493 130.551 18.72C130.162 18.4853 129.73 18.368 129.255 18.368C128.78 18.368 128.348 18.4853 127.959 18.72C127.57 18.9493 127.26 19.2587 127.031 19.648C126.802 20.0373 126.687 20.4693 126.687 20.944V25.536C126.687 26.0053 126.802 26.4347 127.031 26.824C127.26 27.2133 127.57 27.5253 127.959 27.76C128.348 27.9893 128.78 28.104 129.255 28.104ZM136.381 29L135.581 28.2L146.325 17.48L147.125 18.272L136.381 29ZM144.725 29.24C144.197 29.24 143.714 29.112 143.277 28.856C142.845 28.5947 142.498 28.248 142.237 27.816C141.975 27.3787 141.845 26.8933 141.845 26.36C141.845 25.8373 141.978 25.3573 142.245 24.92C142.511 24.4827 142.863 24.1333 143.301 23.872C143.738 23.6107 144.213 23.48 144.725 23.48C145.253 23.48 145.735 23.6107 146.173 23.872C146.61 24.128 146.957 24.4747 147.213 24.912C147.474 25.344 147.605 25.8267 147.605 26.36C147.605 26.8933 147.474 27.3787 147.213 27.816C146.957 28.248 146.61 28.5947 146.173 28.856C145.735 29.112 145.253 29.24 144.725 29.24ZM144.725 28.176C145.05 28.176 145.351 28.0933 145.629 27.928C145.906 27.7627 146.127 27.544 146.293 27.272C146.458 26.9947 146.541 26.6907 146.541 26.36C146.541 26.0293 146.458 25.728 146.293 25.456C146.127 25.1787 145.906 24.9573 145.629 24.792C145.351 24.6267 145.05 24.544 144.725 24.544C144.394 24.544 144.09 24.6267 143.813 24.792C143.541 24.9573 143.319 25.1787 143.149 25.456C142.983 25.728 142.901 26.0293 142.901 26.36C142.901 26.6907 142.983 26.9947 143.149 27.272C143.319 27.544 143.541 27.7627 143.813 27.928C144.09 28.0933 144.394 28.176 144.725 28.176ZM137.981 23C137.453 23 136.97 22.872 136.533 22.616C136.095 22.3547 135.746 22.008 135.485 21.576C135.229 21.1387 135.101 20.6533 135.101 20.12C135.101 19.5973 135.234 19.1173 135.501 18.68C135.767 18.2427 136.119 17.8933 136.557 17.632C136.994 17.3707 137.469 17.24 137.981 17.24C138.509 17.24 138.989 17.3707 139.421 17.632C139.858 17.888 140.207 18.2347 140.469 18.672C140.73 19.104 140.861 19.5867 140.861 20.12C140.861 20.6533 140.73 21.1387 140.469 21.576C140.207 22.008 139.858 22.3547 139.421 22.616C138.989 22.872 138.509 23 137.981 23ZM137.981 21.936C138.311 21.936 138.613 21.8533 138.885 21.688C139.162 21.5227 139.383 21.304 139.549 21.032C139.714 20.7547 139.797 20.4507 139.797 20.12C139.797 19.7893 139.714 19.488 139.549 19.216C139.383 18.9387 139.162 18.7173 138.885 18.552C138.613 18.3867 138.311 18.304 137.981 18.304C137.65 18.304 137.346 18.3867 137.069 18.552C136.797 18.7173 136.578 18.9387 136.413 19.216C136.247 19.488 136.165 19.7893 136.165 20.12C136.165 20.4507 136.247 20.7547 136.413 21.032C136.578 21.304 136.797 21.5227 137.069 21.688C137.346 21.8533 137.65 21.936 137.981 21.936Z" fill="#171A21"/>
<defs>
<linearGradient id="paint0_linear_13_785" x1="128.5" y1="3" x2="128.288" y2="43.3001" gradientUnits="userSpaceOnUse">
<stop stop-color="#F15C3C"/>
<stop offset="1" stop-color="#4825D2" stop-opacity="0.8"/>
</linearGradient>
</defs>
</svg>
